<svg width="206" height="2" viewBox="0 0 206 2" fill="none" xmlns="http://www.w3.org/2000/svg">
<path fill-rule="evenodd" clip-rule="evenodd" d="M5.03039 1.50988L0.99877 1.5L1.00122 0.5L5.03284 0.509881L5.03039 1.50988ZM11.481 1.52569L7.44936 1.51581L7.45181 0.51581L11.4834 0.525692L11.481 1.52569ZM17.9316 1.5415L13.9 1.53162L13.9024 0.531621L17.934 0.541502L17.9316 1.5415ZM24.3822 1.55731L20.3505 1.54743L20.353 0.547431L24.3846 0.557312L24.3822 1.55731ZM30.8328 1.57312L26.8011 1.56324L26.8036 0.563241L30.8352 0.573123L30.8328 1.57312ZM37.2834 1.58893L33.2517 1.57905L33.2542 0.579051L37.2858 0.588933L37.2834 1.58893ZM43.7339 1.60474L39.7023 1.59486L39.7048 0.594862L43.7364 0.604743L43.7339 1.60474ZM50.1845 1.62055L46.1529 1.61067L46.1554 0.610672L50.187 0.620553L50.1845 1.62055ZM56.6351 1.63636L52.6035 1.62648L52.606 0.626482L56.6376 0.636364L56.6351 1.63636ZM63.0857 1.65217L59.0541 1.64229L59.0566 0.642292L63.0882 0.652174L63.0857 1.65217ZM69.5363 1.66798L65.5047 1.6581L65.5071 0.658103L69.5388 0.667984L69.5363 1.66798ZM75.9869 1.68379L71.9553 1.67391L71.9577 0.673913L75.9894 0.683794L75.9869 1.68379ZM82.4375 1.6996L78.4059 1.68972L78.4083 0.689723L82.44 0.699605L82.4375 1.6996ZM88.8881 1.71541L84.8565 1.70553L84.8589 0.705534L88.8905 0.715415L88.8881 1.71541ZM95.3387 1.73122L91.3071 1.72134L91.3095 0.721344L95.3411 0.731225L95.3387 1.73122ZM101.789 1.74703L97.7577 1.73715L97.7601 0.737154L101.792 0.747036L101.789 1.74703ZM108.24 1.76284L104.208 1.75296L104.211 0.752964L108.242 0.762846L108.24 1.76284ZM114.69 1.77865L110.659 1.76877L110.661 0.768775L114.693 0.778656L114.69 1.77865ZM121.141 1.79446L117.109 1.78458L117.112 0.784585L121.144 0.794466L121.141 1.79446ZM127.592 1.81027L123.56 1.80039L123.562 0.800395L127.594 0.810277L127.592 1.81027ZM134.042 1.82608L130.011 1.8162L130.013 0.816206L134.045 0.826087L134.042 1.82608ZM140.493 1.84189L136.461 1.83201L136.464 0.832016L140.495 0.841897L140.493 1.84189ZM146.943 1.8577L142.912 1.84782L142.914 0.847826L146.946 0.857708L146.943 1.8577ZM153.394 1.87351L149.362 1.86363L149.365 0.863636L153.396 0.873518L153.394 1.87351ZM159.845 1.88933L155.813 1.87944L155.815 0.879447L159.847 0.889328L159.845 1.88933ZM166.295 1.90514L162.264 1.89525L162.266 0.895257L166.298 0.905138L166.295 1.90514ZM172.746 1.92095L168.714 1.91106L168.717 0.911067L172.748 0.920949L172.746 1.92095ZM179.196 1.93676L175.165 1.92687L175.167 0.926877L179.199 0.936759L179.196 1.93676ZM185.647 1.95257L181.615 1.94268L181.618 0.942688L185.649 0.952569L185.647 1.95257ZM192.098 1.96838L188.066 1.9585L188.068 0.958498L192.1 0.968379L192.098 1.96838ZM198.548 1.98419L194.517 1.97431L194.519 0.974308L198.551 0.98419L198.548 1.98419ZM204.999 2L200.967 1.99012L200.97 0.990119L205.001 1L204.999 2Z" fill="black"/>
</svg>
